HIERARCHY
ROOT Pelvis
{
	OFFSET 0.000000 0.000000 0.000000
	CHANNELS 6 Xposition Yposition Zposition Xrotation Yrotation Zrotation
	JOINT LeftUpLeg_virtual
	{
		OFFSET 0.000000 0.000000 0.000000
		CHANNELS 3 Xrotation Yrotation Zrotation
		JOINT LeftUpLeg
		{
			OFFSET 18.735201 -5.666702 -4.541200
			CHANNELS 3 Xrotation Yrotation Zrotation
			JOINT LeftLeg
			{
				OFFSET -0.021200 -31.938179 0.493100
				CHANNELS 3 Xrotation Yrotation Zrotation
				JOINT LeftFoot
				{
					OFFSET 0.021200 -31.938179 -4.336299
					CHANNELS 3 Xrotation Yrotation Zrotation
					JOINT LeftToeBase
					{
						OFFSET 0.943001 -26.722000 15.023500
						CHANNELS 3 Xrotation Yrotation Zrotation
						End Site
						{
							OFFSET 0 0 0
						}
					}
				}
			}
		}
	}
	JOINT RightUpLeg_virtual
	{
		OFFSET 0.000000 0.000000 0.000000
		CHANNELS 3 Xrotation Yrotation Zrotation
		JOINT RightUpLeg
		{
			OFFSET -18.735201 -5.666702 -4.541200
			CHANNELS 3 Xrotation Yrotation Zrotation
			JOINT RightLeg
			{
				OFFSET 0.018946 -31.938133 0.493100
				CHANNELS 3 Xrotation Yrotation Zrotation
				JOINT RightFoot
				{
					OFFSET -0.018946 -31.938126 -4.336299
					CHANNELS 3 Xrotation Yrotation Zrotation
					JOINT RightToeBase
					{
						OFFSET -0.943001 -26.722004 15.023500
						CHANNELS 3 Xrotation Yrotation Zrotation
						End Site
						{
							OFFSET 0 0 0
						}
					}
				}
			}
		}
	}
	JOINT Hips_virtual
	{
		OFFSET 0.000000 0.000000 0.000000
		CHANNELS 3 Xrotation Yrotation Zrotation
		JOINT Hips
		{
			OFFSET -0.000000 -0.000000 -0.000000
			CHANNELS 3 Xrotation Yrotation Zrotation
			JOINT Spine
			{
				OFFSET 0.000000 10.199997 -0.299500
				CHANNELS 3 Xrotation Yrotation Zrotation
				JOINT Spine1
				{
					OFFSET 0.000000 11.900002 -1.516600
					CHANNELS 3 Xrotation Yrotation Zrotation
					JOINT Spine2
					{
						OFFSET 0.000000 13.600006 -2.842500
						CHANNELS 3 Xrotation Yrotation Zrotation
						JOINT Neck_virtual
						{
							OFFSET 0.000000 0.000000 0.000000
							CHANNELS 3 Xrotation Yrotation Zrotation
							JOINT Neck
							{
								OFFSET 0.000000 9.624100 -2.890100
								CHANNELS 3 Xrotation Yrotation Zrotation
								JOINT Head
								{
									OFFSET 0.000000 14.068802 -1.351900
									CHANNELS 3 Xrotation Yrotation Zrotation
									End Site
									{
										OFFSET 0 0 0
									}
								}
							}
						}
						JOINT LeftShoulder_virtual
						{
							OFFSET 0.000000 0.000000 0.000000
							CHANNELS 3 Xrotation Yrotation Zrotation
							JOINT LeftShoulder
							{
								OFFSET 15.263000 10.923401 -0.547700
								CHANNELS 3 Xrotation Yrotation Zrotation
								JOINT LeftArm
								{
									OFFSET 25.438599 -2.830597 -13.032500
									CHANNELS 3 Xrotation Yrotation Zrotation
									JOINT LeftForeArm
									{
										OFFSET 29.960503 0.000000 0.000000
										CHANNELS 3 Xrotation Yrotation Zrotation
										JOINT LeftHand
										{
											OFFSET 27.849251 0.000000 0.000000
											CHANNELS 3 Xrotation Yrotation Zrotation
											End Site
											{
												OFFSET 0 0 0
											}
										}
									}
								}
							}
						}
						JOINT RightShoulder_virtual
						{
							OFFSET 0.000000 0.000000 0.000000
							CHANNELS 3 Xrotation Yrotation Zrotation
							JOINT RightShoulder
							{
								OFFSET -15.263000 10.923401 -0.547700
								CHANNELS 3 Xrotation Yrotation Zrotation
								JOINT RightArm
								{
									OFFSET -25.438599 -2.830597 -13.032500
									CHANNELS 3 Xrotation Yrotation Zrotation
									JOINT RightForeArm
									{
										OFFSET -29.960503 0.000000 0.000000
										CHANNELS 3 Xrotation Yrotation Zrotation
										JOINT RightHand
										{
											OFFSET -27.849251 0.000000 0.000000
											CHANNELS 3 Xrotation Yrotation Zrotation
											End Site
											{
												OFFSET 0 0 0
											}
										}
									}
								}
							}
						}
					}
				}
			}
		}
	}
}
MOTION
Frames: 9
Frame Time: 0.03333333
1.273936 77.716415 4.453005 0.000000 0.000000 0.000000 0.798404 -28.059170 7.594772 -49.206517 0.042536 25.212110 53.232312 -3.186909 -3.246134 -0.796731 -1.764815 -13.969420 0.000000 0.000000 0.000000 -3.538756 -23.315327 -4.557464 -40.581159 -6.569469 -24.144213 50.678921 3.346385 -1.389533 -6.448172 0.772288 12.025485 0.000000 0.000000 0.000000 8.191688 -12.341720 4.004895 22.591566 -9.582021 4.844229 16.831517 2.432998 -1.786091 8.425440 1.081525 -1.058519 0.000000 0.000000 0.000000 5.095440 1.873965 -2.830928 0.456450 0.997888 -1.157070 0.000000 0.000000 0.000000 9.156187 1.443542 1.194955 4.613689 -4.187573 2.226965 -46.920295 -12.901769 -62.279864 -59.528227 -78.797987 -57.831478 0.000000 0.000000 0.000000 9.595326 2.104305 -0.813336 6.394806 10.537710 0.673160 -34.738472 26.340852 48.416684 -64.212965 84.525531 62.513764 0.000000 0.000000 0.000000 
1.246444 77.815376 4.598964 0.000000 0.000000 0.000000 0.809221 -27.917500 7.557175 -49.161622 0.093815 25.187274 53.045407 -3.205634 -3.256452 -0.955572 -1.765077 -13.972717 0.000000 0.000000 0.000000 -3.375754 -23.477577 -4.458607 -40.398380 -6.682312 -24.065420 50.528619 3.394695 -1.513836 -6.559443 0.873581 11.866690 0.000000 0.000000 0.000000 8.131113 -12.534662 3.990513 22.606746 -9.624068 4.810822 16.822110 2.372877 -1.803307 8.428958 1.046545 -1.077504 0.000000 0.000000 0.000000 5.129703 1.814949 -2.813183 0.436864 1.005476 -1.149249 0.000000 0.000000 0.000000 9.129403 1.390283 1.173041 4.570512 -4.017171 1.951325 -46.457854 -12.789723 -62.696916 -59.941986 -78.842834 -58.337991 0.000000 0.000000 0.000000 9.593114 2.079005 -0.785283 6.313235 10.358310 0.977330 -34.653819 26.660110 49.036062 -79.635887 85.084063 78.046051 0.000000 0.000000 0.000000 
1.216951 77.887779 4.718120 0.000000 0.000000 0.000000 0.823383 -27.811567 7.549935 -49.127638 0.124696 25.186606 52.903838 -3.226183 -3.271859 -1.084672 -1.766096 -13.988990 0.000000 0.000000 0.000000 -3.253790 -23.634898 -4.374054 -40.269583 -6.777767 -23.998985 50.439158 3.440706 -1.630097 -6.631940 0.971891 11.722013 0.000000 0.000000 0.000000 8.076252 -12.728637 3.984418 22.671418 -9.653065 4.814924 16.827180 2.306763 -1.818825 8.438286 1.008414 -1.094158 0.000000 0.000000 0.000000 5.151671 1.755418 -2.794198 0.413966 1.013023 -1.141297 0.000000 0.000000 0.000000 9.107845 1.337824 1.150258 4.531502 -3.845888 1.675442 -46.011060 -12.676748 -63.067849 -60.143422 -78.864294 -58.624354 0.000000 0.000000 0.000000 9.583254 2.048270 -0.763871 6.229808 10.167231 1.236156 -34.580397 26.913481 49.639073 -96.500457 85.207887 95.013532 0.000000 0.000000 0.000000 
1.184009 77.934296 4.812354 0.000000 0.000000 0.000000 0.842698 -27.740634 7.571431 -49.100744 0.136544 25.208118 52.803007 -3.248769 -3.291072 -1.186966 -1.768562 -14.016410 0.000000 0.000000 0.000000 -3.168982 -23.785073 -4.303672 -40.189216 -6.856464 -23.944931 50.403600 3.487737 -1.736944 -6.670779 1.068972 11.595890 0.000000 0.000000 0.000000 8.026951 -12.918082 3.985942 22.786059 -9.662767 4.855628 16.844327 2.238286 -1.831124 8.452373 0.968915 -1.107663 0.000000 0.000000 0.000000 5.164449 1.697538 -2.774251 0.389522 1.021320 -1.133166 0.000000 0.000000 0.000000 9.091766 1.287363 1.126439 4.496790 -3.673863 1.399507 -45.582470 -12.567194 -63.389408 -60.142684 -78.867334 -58.699165 0.000000 0.000000 0.000000 9.568945 2.015269 -0.746550 6.146737 9.975508 1.461668 -34.509340 27.108512 50.213990 -111.784672 84.936701 110.394476 0.000000 0.000000 0.000000 
1.146179 77.955727 4.883534 0.000000 0.000000 0.000000 0.868183 -27.702947 7.619208 -49.078136 0.131105 25.249374 52.738739 -3.273781 -3.313176 -1.265006 -1.773198 -14.053776 0.000000 0.000000 0.000000 -3.117268 -23.926042 -4.247213 -40.151571 -6.919103 -23.903208 50.415450 3.537555 -1.833942 -6.680549 1.165736 11.490116 0.000000 0.000000 0.000000 7.982349 -13.098799 3.994093 22.945751 -9.649159 4.929295 16.871336 2.170808 -1.839057 8.470250 0.929730 -1.117438 0.000000 0.000000 0.000000 5.172115 1.643134 -2.753981 0.365631 1.030962 -1.125041 0.000000 0.000000 0.000000 9.081419 1.239976 1.101764 4.466455 -3.501050 1.124628 -45.173857 -12.465319 -63.659419 -59.965830 -78.858215 -58.586870 0.000000 0.000000 0.000000 9.553777 1.982947 -0.730934 6.066406 9.793354 1.665357 -34.432059 27.254067 50.747643 -123.743138 84.405743 122.442861 0.000000 0.000000 0.000000 
1.102171 77.953293 4.933343 0.000000 0.000000 0.000000 0.899929 -27.695821 7.690031 -49.058104 0.110438 25.307567 52.707088 -3.301635 -3.337600 -1.321110 -1.780598 -14.100379 0.000000 0.000000 0.000000 -3.094532 -24.056095 -4.204034 -40.151042 -6.966566 -23.873427 50.468633 3.590435 -1.921461 -6.665416 1.262211 11.404090 0.000000 0.000000 0.000000 7.940977 -13.268123 4.007604 23.140691 -9.611175 5.029722 16.906166 2.107158 -1.841892 8.491039 0.892308 -1.123156 0.000000 0.000000 0.000000 5.179132 1.593517 -2.734233 0.344446 1.042277 -1.117277 0.000000 0.000000 0.000000 9.076987 1.196521 1.076622 4.440493 -3.327382 0.852346 -44.786076 -12.374768 -63.877316 -59.646608 -78.842581 -58.320158 0.000000 0.000000 0.000000 9.541116 1.953732 -0.714956 5.990939 9.629203 1.857351 -34.341645 27.359043 51.228034 -132.450892 83.756656 131.232659 0.000000 0.000000 0.000000 
1.050958 77.928696 4.963167 0.000000 0.000000 0.000000 0.937197 -27.715827 7.780019 -49.039956 0.076814 25.379569 52.704239 -3.332645 -3.364069 -1.357457 -1.791131 -14.155839 0.000000 0.000000 0.000000 -3.096659 -24.174049 -4.172920 -40.182307 -6.999994 -23.854736 50.557409 3.645387 -2.000431 -6.629156 1.357617 11.335376 0.000000 0.000000 0.000000 7.901025 -13.424897 4.025083 23.357910 -9.550712 5.149047 16.946997 2.049408 -1.839281 8.513919 0.857732 -1.124721 0.000000 0.000000 0.000000 5.189708 1.549379 -2.715893 0.327886 1.055286 -1.110320 0.000000 0.000000 0.000000 9.078504 1.157540 1.051465 4.418802 -3.153030 0.584101 -44.419152 -12.298217 -64.044375 -59.219236 -78.825745 -57.932749 0.000000 0.000000 0.000000 9.533593 1.929317 -0.696978 5.921841 9.488971 2.045824 -34.233653 27.431252 51.646315 -138.687073 83.089279 137.541773 0.000000 0.000000 0.000000 
0.991872 77.884232 4.974069 0.000000 0.000000 0.000000 0.978732 -27.759156 7.884940 -49.023563 0.032601 25.462085 52.726400 -3.366961 -3.392505 -1.376130 -1.804915 -14.219929 0.000000 0.000000 0.000000 -3.119557 -24.279342 -4.152045 -40.240288 -7.020823 -23.845777 50.676411 3.700523 -2.072056 -6.575146 1.450554 11.280401 0.000000 0.000000 0.000000 7.860730 -13.569301 4.045219 23.583586 -9.471986 5.279005 16.992182 1.998715 -1.831183 8.538135 0.826619 -1.122219 0.000000 0.000000 0.000000 5.207172 1.510762 -2.699719 0.317366 1.069725 -1.104625 0.000000 0.000000 0.000000 9.085807 1.123176 1.026685 4.401169 -2.978680 0.320789 -44.072619 -12.237284 -64.163822 -58.713160 -78.810998 -57.454417 0.000000 0.000000 0.000000 9.532793 1.910528 -0.675863 5.859793 9.375573 2.236549 -34.106095 27.476435 51.997885 -143.196487 82.462636 142.114066 0.000000 0.000000 0.000000 
0.924681 77.822739 4.966858 0.000000 0.000000 0.000000 1.023169 -27.822012 8.000554 -49.009012 -0.019860 25.551850 52.769878 -3.404587 -3.422935 -1.379081 -1.821898 -14.292437 0.000000 0.000000 0.000000 -3.159184 -24.372007 -4.139101 -40.320143 -7.030756 -23.844795 50.820822 3.753458 -2.137575 -6.506325 1.539232 11.235158 0.000000 0.000000 0.000000 7.818722 -13.702580 4.066966 23.805257 -9.380473 5.412111 17.040315 1.955260 -1.817779 8.563003 0.799073 -1.115864 0.000000 0.000000 0.000000 5.233539 1.477108 -2.686245 0.313624 1.085072 -1.100600 0.000000 0.000000 0.000000 9.098530 1.093122 1.002536 4.387255 -2.805720 0.062510 -43.745914 -12.192543 -64.240559 -58.151049 -78.800132 -56.908969 0.000000 0.000000 0.000000 9.539147 1.897304 -0.651044 5.804647 9.288852 2.432584 -33.958983 27.497939 52.282568 -146.517967 81.907041 145.487851 0.000000 0.000000 0.000000 
